<svg fill="none" height="20" viewBox="0 0 23 31" xmlns="http://www.w3.org/2000/svg"><path d="m20.9155 7.80085.2467-.13821c.711-.32702 1.0606-1.08815.8333-1.81618v-.00389c-.0951-.29199-.2836-.55283-.5322-.73776l-4.7359-3.45911c-.505-.39127-1.2956-.41074-1.8453-.04867l-6.16753 3.43965c-.05245-.09344-.10489-.18688-.15734-.28226-.65851-1.18353-1.34034-2.41184-1.5307-2.75639l-.13791-.24722c-.32635-.71245-1.08587-1.062843-1.81237-.83509h-.00389c-.29138.09538-.55167.2842-.73621.53337l-3.451851 4.74582c-.390445.50611-.40987 1.29838-.048562 1.84927l3.432433 6.18042c-.09713.0545-.19426.1091-.29333.1636-1.17716.6579-2.39706 1.3373-2.73895 1.528-.10101.0565-.17676.0993-.23503.1344-.71679.3211-1.0722752 1.0881-.843059 1.8239.095183.292.281661.5529.530303.7378l4.149216 3.0308c.3108.2278.48368.3524.59052.4205l-.00582.0078c.09907.0759.20785.1382.3244.1869.4798.1985 1.07809.1538 1.52099-.1382l1.10334-.6152-1.37335 9.0264 1.68998-1.1932 1.41802 1.5086.5381-10.611.7653-.4263.6352 11.0334 1.4064-1.5184 1.6978 1.1816-1.8668-11.7419.1535-.0856c.0544.0973.1088.1946.1632.2939.6565 1.1796 1.3345 2.4021 1.5248 2.7447.0564.1012.0991.1772.1341.2356h-.002c.3225.7202 1.0878 1.0764 1.8221.8467.2914-.0954.5517-.2822.7362-.5314l3.0245-4.1579c.2273-.3115.3516-.4847.4196-.5918l.0078.0058c.0757-.0992.1379-.2083.1864-.3251.1982-.4808.1535-1.0803-.1379-1.5241l-3.4324-6.1805c.0932-.05256.1884-.10512.2817-.15768 1.181-.6599 2.4067-1.34315 2.7506-1.53392zm-11.68421-.28809 1.70551 2.79334-.1185.1733-3.6286-2.49362s-.01165-.00779-.00971-.0292c.00389-.00973.00583-.01557.00777-.01557l1.67444-1.02975c.14569.23943.27196.44577.36714.59955zm4.05791 9.29304c-.1457-.2394-.272-.4457-.3671-.5995l-.0583-.0954-.3205-2.0147c.7789.5314 1.4433.9849 1.4452.9849l.9674.6483.0058.0039s.0117.0077.0097.0292c-.0039.0097-.0078.0155-.0097.0175l-1.6725 1.0278zm-.8159-5.1896c.1593-.2336.3283-.4808.4973-.73.6605-.97134 1.319-1.94074 1.319-1.94269l.6468-.96941.0039-.00584s.0078-.01168.0292-.00973c.0097.00389.0155.00778.0175.00973l1.0256 1.67408c-.2389.14599-.4448.27252-.5983.36786l-2.7875 1.7092-.1515-.1032zm-2.78164.51-2.48059 3.6265s-.00777.0117-.02913.0098c-.00972-.0039-.01555-.0059-.01555-.0078l-1.02759-1.678c.23892-.146.44484-.2725.59829-.3679l2.78363-1.7072zm-4.03266 1.166c-.72261-1.1835-1.49379-2.4449-1.79877-2.9452-.17482-.292-.44289-.72802-.72455-1.18742-.43901-.71246-.9363-1.51835-1.19465-1.9758-.02137-.07397-.00971-.15768.03108-.21997l3.25566-4.88986c.0641-.10122.17871-.16352.31468-.16936.13598-.00584.26223.04478.34188.13821.39044.61902 1.28983 2.09455 2.0882 3.40656l-1.52876.85261c-.10878.05645-.24087.13821-.35354.21607-.62937.46329-.89549 1.31201-.64685 2.06145.12044.36986.35936.69883.67211.93048l2.85938 2.08873-.9596.5353c-.63714.3562-1.29566.7222-1.65502.9227-.12821.0701-.34771.1946-.62938.3504l-.07187-.1168zm2.71952 6.525c-.70902.438-1.51322.9363-1.96777 1.1952-.07381.0215-.15734.0098-.2195-.0311l-4.8796-3.2625c-.10101-.0642-.16317-.1791-.16899-.3154-.00583-.1362.04468-.2627.13792-.3426.61772-.3912 2.09014-1.2925 3.3994-2.0926l.85082 1.532c.05633.109.13792.2414.21562.3543.46231.6307 1.30924.8974 2.05711.6482.36908-.1207.69737-.3601.92853-.6735l.44289-.6073-.5206 3.424c-.09129.0565-.18259.1129-.27583.1713zm2.36208-1.4482.2118-4.1638.1515.2725.2039 3.5428c-.1962.1207-.3865.2375-.5672.3485zm5.6838-8.0512c.742 1.2147 1.5482 2.5364 1.8648 3.0523.1749.2939.4429.73.7285 1.1913.437.7105.9343 1.5164 1.1927 1.9719.0213.074.0097.1577-.0311.22l-3.2557 4.8898c-.0641.1013-.1787.1636-.3147.1694-.1359.0058-.2622-.0448-.3418-.1382-.3905-.619-1.2899-2.0946-2.0882-3.4066l1.5287-.8526c.1088-.0564.2428-.1382.3536-.2161.6293-.4632.8955-1.312.6468-2.0614-.1204-.3699-.3594-.6988-.6721-.9305l-2.8594-2.0887.8936-.4983c.6566-.366 1.35-.7533 1.7191-.9597.1282-.0701.3497-.1946.6294-.3504l.0058.0098zm.1923-3.10093c-.0563-.10901-.1379-.24332-.2156-.35428-.4623-.6307-1.3093-.89738-2.0571-.64822-.3691.12069-.6974.36012-.9285.67353l-2.0844 2.8654-.4972-.89544c-.3652-.65795-.7518-1.35289-.9577-1.72274-.06993-.12848-.19426-.35039-.34966-.6307l.11656-.07203c1.181-.72413 2.4398-1.49694 2.939-1.80255.2914-.1752.7265-.44383 1.1849-.72609.711-.43993 1.5152-.93826 1.9717-1.19716.0738-.02141.1573-.00973.2195.03115l4.8796 3.26251c.101.06423.1632.17908.169.31534.0058.13627-.0447.2628-.1379.34261-.6177.39126-2.0902 1.29254-3.3994 2.0926l-.8508-1.53198z" fill="#e53e25"/></svg>