<svg fill="none" height="20" viewBox="0 0 30 31" xmlns="http://www.w3.org/2000/svg"><path d="m28.2423 15.8036c-.3366-.7296-.8345-1.3748-1.4571-1.888.4313-.2664.7765-.6497.9946-1.1043l.0782-.028c.0214-.0081.0425-.0162.0636-.0249.1235-.0506.2425-.1115.3558-.1819l.0574-.0367c.2608-.1725.4845-.3944.6582-.653l.003-.0044.0028-.0047.0272-.0408.0122-.0208c.067-.1076.1252-.2202.1742-.3368v-.0037-.0034l.0177-.0431.0088-.0253c.0453-.1194.0807-.2423.1058-.3674v-.004-.0041l.0095-.0485.0031-.0219c.042-.2566.0408-.5184-.0038-.7746-.0027-.0165-.0058-.0337-.0088-.0488v-.0037-.0034c-.0262-.13035-.0633-.25832-.1109-.38257-.0075-.01987-.0153-.03974-.0235-.05927-.051-.12287-.1126-.24118-.184-.35363-.0092-.01516-.0187-.03031-.0286-.04513l-.0037-.00539-.0034-.00539c-.0874-.12977-.1876-.2507-.299-.36103l-1.6115-1.59637c-.2204-.21945-.4825-.39344-.7713-.51189s-.5984-.17901-.9109-.17818h-.0208c-.3125-.00083-.6222.05973-.9109.17818-.2888.11845-.551.29244-.7713.51189l-.1453.14381c.0235-.07005.0442-.14111.0609-.21285.0051-.02223.0099-.04412.0143-.06736.0619-.30465.0619-.61847 0-.92313v-.00505-.00505l-.0099-.04749-.0061-.0229c-.0295-.12377-.069-.24496-.1184-.36238l-.0193-.0458-.0126-.02593c-.0096-.02089-.0198-.04177-.03-.06298.169-.46735.2004-.9726.0905-1.45692s-.3564-.92776-.711-1.27867c-.3546-.3509-.8025-.59484-1.2917-.70338s-.9994-.07722-1.4713.0903c-.0245-.01212-.0493-.02357-.0738-.03367-.017-.00775-.034-.01516-.0514-.02223h-.0031-.0034c-.1252-.05175-.2547-.09276-.387-.12259-.0204-.00472-.0412-.0091-.0619-.01314-.3082-.06096-.6255-.06096-.9337 0l-.052.01044-.031.00809c-.1246.02928-.2466.06847-.3649.1172h-.0041l-.0041.00168-.0415.01718-.0217.01077c-.1184.05298-.2322.1155-.3402.18692l-.0081.00539-.0078.00539-.0167.01145c-.1836-.5057-.52-.94316-.9635-1.25295-.4434-.309791-.9724-.476885-1.5151-.478577-.5427-.001693-1.0728.162099-1.5182.469117-.4455.30702-.7846.74238-.9714 1.24692l-.0163-.01112c-.1094-.07199-.2245-.13507-.3443-.1886l-.0595-.02559h-.0024c-.1239-.05084-.2519-.09128-.3826-.12091l-.0585-.0128c-.3103-.06179-.6298-.06179-.9401 0h-.0061-.0065l-.0473.01011-.0207.00505c-.1251.02945-.2476.06887-.3663.11787l-.0459.01886-.0286.01347-.0595.02796c-.47219-.16709-.98256-.19796-1.47174-.08903-.48918.10892-.93706.35318-1.29151.70433-.35446.35115-.60091.79475-.71067 1.27919-.10976.48443-.07832.98977.09066 1.4572-.01191.02425-.02347.04884-.03402.07342-.01054.02459-.01768.0394-.02619.05961-.05142.12194-.09216.24802-.12176.37687-.00544.02222-.01055.04411-.01463.06735-.06207.30521-.06207.61961 0 .92482v.00336.00371l.01055.04984.00646.02493c.02509.10164.05691.20155.09523.29906l-.25849-.25596c-.22031-.21947-.48241-.39347-.77112-.51192-.28871-.11846-.59829-.17901-.9108-.17815h-.02313c-.31251-.00086-.62209.05969-.9108.17815-.28871.11845-.55081.29245-.77112.51192l-1.61287 1.59772c-.11107.11031-.21098.23112-.29829.3607l-.00272.00437-.00306.00472-.02755.03873-.01191.01987c-.06721.10813-.12556.22143-.17448.33881l-.01871.04546-.00952.02661c-.044164.11712-.078964.2375-.104081.35998l-.011224.0556-.004762.0337c-.042127.2558-.040862.5168.003741.7722.003402.0219.007484.0431.011905.0647.025938.1279.062455.2535.109181.3755.00816.0209.01633.0418.02517.0627.05104.1224.11248.2404.18367.3526l.02755.0424.0034.0054.0034.0051c.17452.2602.39978.4832.66256.656l.04558.03.02483.0145c.10843.0666.22218.1244.34012.1727h.00306.00307l.04251.0172.02245.0078c.02279.0084.04558.0165.06802.0242.2234.4652.57956.8553 1.02446 1.1222-.61576.511-1.10847 1.1518-1.44213 1.8755-.489.3242-.89059.7617-1.169801 1.2746-.279209.5129-.427577 1.0856-.432187 1.6683.002349.7913.27655 1.5584.777528 2.1749.07954.8539.47534 1.6484 1.11117 2.2305.63583.5822 1.4667.9108 2.33259.9225.89154.6531 1.97433.9995 3.08324.9865.09377.5794.33116 1.1268.69092 1.5931s.83067.837 1.37058 1.0789c.25737.5557.65517 1.0363 1.15497 1.3953s1.0846.5843 1.698.6541c.6668.6449 1.5621 1.0058 2.4942 1.0053s1.827-.3623 2.4931-1.008c.6083-.0739 1.1873-.3011 1.6815-.6599.4943-.3588.8873-.8372 1.1415-1.3895.5377-.2429 1.0063-.6137 1.3642-1.0793.3579-.4657.5939-1.0118.6871-1.5897 1.1105.0149 2.1955-.3303 3.0893-.9831.8658-.0117 1.6966-.3402 2.3324-.9222s1.0317-1.3764 1.1114-2.2301c.5009-.6166.7751-1.3836.7775-2.1749-.0046-.5829-.1531-1.1559-.4325-1.669s-.6812-.9507-1.1705-1.2749zm-5.0491-5.3279v-.0058c.0065-.0345.0164-.0684.0296-.101l.003-.0074c.0133-.0326.0298-.0639.0493-.0933l.0041-.0064c.0214-.0319.0459-.0617.0731-.0889l1.6136-1.59436c.0539-.05357.118-.09603.1886-.12493.0706-.02891.1462-.04368.2226-.04346h.0112.0116c.0764-.00022.152.01455.2226.04346.0706.0289.1347.07136.1886.12493l1.6125 1.59706c.0273.0273.0519.0571.0735.0889l.0038.0064c.0194.0295.0361.0607.0496.0933l.0027.0074c.013.0327.023.0665.03.101.0003.0019.0003.0039 0 .0058.0145.0695.0145.1412 0 .2108-.0004.002-.0004.004 0 .006-.007.0345-.0171.0683-.03.1011l-.0027.0074c-.0136.0325-.0302.0638-.0496.0933l-.0038.0064c-.043.0636-.0983.1183-.1626.161l-.0061.0037c-.03.019-.0616.0355-.0945.0491l-.0075.0027c-.0331.013-.0672.0229-.1021.0297-.0019.0003-.0038.0003-.0057 0-.0352.007-.071.0105-.1068.0104h-.7769v.5389c.0023.1113-.0179.2221-.0594.3256-.0415.1036-.1035.1979-.1822.2775-.0788.0795-.1728.1427-.2765.1859-.1037.0431-.2151.0653-.3276.0653s-.2239-.0222-.3276-.0653c-.1038-.0432-.1978-.1064-.2765-.1859-.0788-.0796-.1407-.1739-.1822-.2775-.0415-.1035-.0617-.2143-.0594-.3256v-.5389h-.7793c-.0358-.0001-.0716-.0036-.1068-.0104-.0019-.0004-.0038-.0004-.0057 0-.0349-.007-.069-.0169-.1021-.0297l-.0071-.0027c-.0331-.0134-.0647-.03-.0946-.0495l-.0061-.0037c-.0645-.0423-.1198-.0971-.1626-.161l-.0041-.006c-.0193-.0295-.0358-.0608-.0493-.0933l-.003-.0078c-.013-.0327-.0229-.0665-.0296-.101v-.0064c-.0141-.0696-.0141-.1412 0-.2108zm-4.7798-6.02851c-.0002-.03834.0036-.07659.0112-.11417l.0021-.00708c.0074-.03454.018-.06836.0316-.10103l.0034-.00741c.0139-.03191.0307-.06247.0503-.09127l.0034-.00505c.02-.02924.0428-.05653.0681-.08151.0254-.0249.053-.04744.0826-.06735l.0048-.00371c.0293-.01929.0602-.03597.0925-.04984l.0075-.00303c.0329-.01377.067-.02437.102-.03166h.0075c.0759-.01516.154-.01516.2299 0h.0068c.0349.00737.0691.01785.102.03132l.0072.00337c.0325.01367.0636.03036.0928.04984l.0045.00303c.0296.01993.0574.04247.083.06736l.2928.29031.2565.25427.384-.38023c.1589-.15676.3743-.24456.5987-.24408.2244.00047.4393.08918.5976.24661.1584.15743.247.37068.2466.59284-.0005.22217-.0901.43504-.2491.5918l-.3837.38023.267.26438.284.28122c.0251.02526.0478.05264.0681.08184l.0034.00471c.0195.02907.0364.05985.0503.09194l.0031.00674c.0138.03262.0245.06644.0319.10104v.00707c.015.07516.015.1525 0 .22767v.00707c-.0074.03458-.0181.06841-.0319.10103l-.0034.00741c-.0139.03195-.0307.0626-.05.09161l-.0038.00471c-.0191.02892-.0409.05609-.0649.08117-.0253.02498-.0528.04753-.0823.06736l-.0052.00336c-.029.01944-.0598.03603-.0921.04951l-.0075.00371c-.033.01344-.0672.02392-.102.03132-.0024.00015-.0048.00015-.0072 0-.0379.00767-.0766.01151-.1153.01145h-2.2788c-.0765.00026-.1522-.01449-.2228-.04339-.0707-.02891-.1348-.07139-.1888-.125-.0025-.00279-.0049-.00571-.0071-.00876-.0027-.00269-.0061-.00438-.0089-.00707-.054-.05347-.0969-.11699-.1262-.18692-.0292-.0698-.0441-.14468-.0438-.22026zm0 5.23298c-.0001-.03835.0038-.0766.0116-.11417v-.00708c.0073-.03461.018-.06844.0319-.10103l.0034-.00741c.0137-.03194.0305-.0625.05-.09127l.0038-.00505c.02-.02924.0428-.05653.068-.0815.0255-.0248.0532-.04734.0826-.06736l.0048-.00337c.0291-.01924.06-.03581.0922-.04951l.0085-.00134c.033-.01344.0671-.02393.102-.03132l.0085-.00236c.0759-.01516.1541-.01516.2299 0 .0023.00076.0045.00132.0069.00168.0349.00721.0691.0177.102.03132l.0071.00337c.0324.01362.0633.03019.0925.04951l.0045.0037c.0297.01982.0575.04237.083.06736l.2935.29065.2564.25427.3837-.38023c.0771-.08391.1705-.15145.2747-.19852.1043-.04708.217-.0727.3315-.07533.1146-.00262.2284.01781.3347.06006s.2028.10543.2837.18572.1445.17601.1869.28136c.0425.10535.0628.21814.0599.33148-.0029.1134-.029.225-.0768.3281s-.1162.1955-.2011.2716l-.3823.3799.267.2644.2837.2812c.0252.0252.0479.0527.068.0822l.0034.0043c.0195.0291.0362.0599.05.092l.0034.0067c.0137.0326.0243.0665.0316.1011l.0021.0067c.0149.0752.0149.1525 0 .2277l-.0021.0074c-.0072.0346-.0178.0684-.0316.101l-.0034.0074c-.0139.032-.0306.0626-.05.0916l-.0017.0061c-.04.0588-.0911.1094-.1503.1492l-.0052.0037c-.0291.0192-.06.0357-.0921.0495l-.0075.0034c-.0329.0137-.0671.0243-.102.0316l-.0072.0017c-.0379.0077-.0766.0115-.1153.0115h-2.2815c-.0764 0-.152-.0148-.2226-.0437-.0705-.0289-.1346-.0713-.1887-.1247-.0027-.0027-.0047-.0061-.0071-.0088s-.0061-.0044-.0092-.0074c-.054-.0535-.0968-.1171-.126-.187s-.0441-.1449-.0441-.2205zm-5.2992-1.39733c-.0272-.02711-.0517-.05677-.0731-.08857l-.0041-.0064c-.0193-.02965-.0358-.06099-.0493-.09363l-.0027-.00741c-.0132-.03264-.0233-.06648-.0299-.10103-.0005-.00199-.0005-.00407 0-.00607-.0068-.03474-.0103-.07003-.0106-.10541.0003-.03538.0038-.07066.0106-.10541.0005-.00188.0005-.00385 0-.00573.0065-.03458.0166-.06842.0299-.10104l.0027-.00774c.0136-.0325.0301-.06372.0493-.09329l.0041-.0064c.043-.06375.0982-.11846.1626-.16098l.0061-.00371c.0301-.01929.062-.03576.0953-.04917l.0071-.00269c.033-.01298.0672-.0229.102-.02964h.0058c.0352-.00667.071-.01017.1068-.01044h.7775v-3.89729c0-.22214.0892-.43518.2478-.59226s.3738-.24533.5981-.24533c.2244 0 .4395.08825.5982.24533.1586.15708.2477.37012.2477.59226v3.89796h.7789c.036.00027.0718.00377.1071.01044h.0058c.0349.0069.069.01694.1021.02998l.0071.00269c.0331.01356.0648.03001.0949.04917l.0058.00371c.0645.04234.1198.09708.1626.16098l.004.0064c.0195.02948.0362.06071.0497.09329l.0027.00741c.0129.03275.023.06656.03.10103.0003.00201.0003.00406 0 .00607.0069.03472.0104.07002.0105.10541-.0001.03539-.0036.07069-.0105.10542-.0004.002-.0004.00405 0 .00606-.007.03447-.0171.06828-.03.10103l-.0027.00775c-.0136.03243-.0302.06355-.0497.09295l-.004.0064c-.0214.03197-.0459.06176-.0732.08891l-1.1904 1.17875v3.7794h.7789c.036.0004.0718.004.1071.0108.0019.0003.0039.0003.0058 0 .0348.0069.069.0169.102.0296l.0072.0027c.0331.0136.0649.0301.0949.0495l.0058.0034c.0644.0424.1197.0972.1625.161l.0041.0064c.0194.0295.036.0608.0497.0933l.0027.0077c.0129.0328.0229.0666.0299.1011.0004.002.0004.004 0 .006.0141.0696.0141.1413 0 .2108-.0003.0021-.0003.0041 0 .0061-.007.0345-.017.0683-.0299.101l-.0027.0078c-.0136.0324-.0303.0635-.0497.0929l-.0041.0064c-.0214.0319-.0459.0617-.0731.089l-1.6125 1.597c-.1089.1077-.2566.1683-.4105.1684h-.0113-.0112c-.0762.0001-.1517-.0148-.2221-.0437s-.1343-.0713-.1881-.1247l-1.6125-1.5974c-.0273-.027-.0518-.0567-.0731-.0886l-.0041-.0064c-.0194-.0295-.036-.0607-.0497-.0932l-.0027-.0075c-.0131-.0327-.0231-.0665-.0299-.101 0-.002-.0006-.004-.0017-.0057-.0145-.0696-.0145-.1413 0-.2108.0003-.0021.0003-.0041 0-.0061.0067-.0345.0168-.0684.0299-.101l.0027-.0078c.0136-.0325.0303-.0638.0497-.0933l.0037-.0064c.0429-.0639.0983-.1187.1629-.161l.0058-.0037c.0302-.0192.0621-.0357.0953-.0491l.0071-.0027c.033-.013.0672-.0229.102-.0297h.0058c.0353-.0066.0712-.0101.1072-.0104h.7775v-3.78245zm-4.64879-1.67349v-.00673c.00742-.0346.01812-.06843.03197-.10104l.00306-.00674c.01401-.03206.03085-.06282.05034-.09194l.0034-.00438c.02013-.02936.0429-.05686.06803-.08217l.29353-.29065.25645-.25393-.384-.38024c-.08089-.07728-.14542-.16974-.18983-.27198-.0444-.10225-.06779-.21223-.0688-.32353-.001-.11129.0204-.22167.06294-.32469.04255-.10301.10541-.19661.18489-.27531s.17399-.14093.27803-.18306.21551-.06332.32791-.06233c.1124.001.22347.02416.32673.06813s.19664.10786.27469.18796l.38365.38023.267-.26437.2837-.28122c.0255-.0249.0533-.04744.083-.06736l.0047-.00337c.0293-.01929.0603-.03597.0925-.04984l.0072-.00303c.0329-.01362.0671-.02411.102-.03132h.0068c.0759-.01516.1541-.01516.2299 0h.0075c.0349.00733.0691.01781.1021.03132l.0074.00337c.0323.01386.0633.03054.0926.04984l.0047.00337c.0295.02001.0572.04255.0827.06736.0249.02534.0477.05271.068.08183l.0034.00506c.0196.02884.0364.05939.0503.09127l.0034.0074c.0137.03264.0243.06647.0317.10104l.0017.00707c.0077.03757.0116.07583.0115.11417v2.25849c.0003.07558-.0146.15046-.0438.22026-.0293.06992-.0721.13345-.1262.18691-.0027.0027-.0065.00438-.0089.00708-.0023.00305-.0048.00598-.0075.00875-.0539.05358-.1179.09615-.1884.12529-.0706.02892-.1463.04368-.2228.04344h-2.2788c-.03873.00008-.07736-.00376-.1153-.01145l-.00749-.00168c-.03489-.0074-.06903-.01788-.10203-.03132l-.00714-.00337c-.03227-.01375-.06323-.03032-.09252-.04951l-.00476-.0037c-.0595-.03961-.11067-.09028-.15068-.1492l-.00374-.00471c-.01938-.02901-.03611-.05966-.05-.09161l-.0034-.00707c-.01357-.03268-.02416-.06649-.03163-.10104l-.00204-.00741c-.01495-.0754-.01483-.15298.00034-.22834zm0 5.23335v-.0071c.0074-.0346.0181-.0684.03197-.101l.00306-.0071c.01401-.032.03085-.0626.05034-.0916l.0034-.0044c.02002-.0295.0428-.0572.06803-.0825l.29353-.2903.25645-.254-.384-.3802c-.08089-.0773-.14542-.1697-.18983-.272-.0444-.1022-.06779-.2122-.0688-.3235-.001-.11129.0204-.22167.06294-.32469.04255-.10301.10541-.19661.18489-.27531s.17399-.14093.27803-.18306.21551-.06332.32791-.06232c.1124.00099.22347.02415.32673.06812s.19664.10786.27469.18796l.38365.38023.267-.26471.2837-.28088c.0255-.0249.0533-.04744.083-.06736l.0047-.00337c.0292-.01942.0602-.03611.0925-.04984l.0072-.00337c.033-.01347.0671-.02395.102-.03132l.0068-.00168c.0759-.01516.1541-.01516.2299 0l.0075.00168c.0349.00733.0691.01782.1021.03132l.0074.00371c.0323.01375.0633.03031.0926.0495l.0047.00371c.0296.01991.0573.04245.0827.06736.0249.02534.0477.05271.068.08184l.0034.00471c.0195.029.0363.05965.0503.09161l.0034.00741c.0137.03265.0243.06647.0317.10103l.0017.00741c.0077.03757.0116.07582.0115.11417v2.25644c.0003.0757-.0146.1507-.0438.2206-.0292.07-.0721.1335-.1262.1869-.0031.0023-.0061.0048-.0089.0074-.0027.0027-.0047.0061-.0075.0088-.0539.0536-.118.096-.1885.1249-.0706.0289-.1463.0437-.2227.0435h-2.2788c-.03873.0001-.07736-.0038-.1153-.0115l-.00749-.001c-.03489-.0074-.06903-.0178-.10203-.0313l-.00714-.0034c-.03234-.0137-.06331-.0304-.09252-.0498l-.00476-.0037c-.05939-.0396-.11054-.0901-.15068-.1489l-.00374-.005c-.01937-.0289-.03611-.0594-.05-.0913l-.0034-.0074c-.01362-.0326-.02421-.0665-.03163-.101l-.00204-.0071c-.01481-.0751-.0147-.1523.00034-.2273zm-5.225-.6911c-.03586-.0001-.07162-.0036-.1068-.0105h-.00578c-.03491-.0067-.06908-.0167-.10204-.0299l-.00714-.0024c-.03298-.0135-.06463-.0299-.09456-.0492l-.00612-.004c-.06456-.0424-.11994-.0972-.16292-.161l-.00374-.0064c-.01943-.0293-.03595-.0604-.04932-.0929l-.00306-.0078c-.01308-.0327-.0231-.0665-.02993-.101v-.0064c-.00691-.0347-.01044-.07-.01055-.1054.00011-.0354.00364-.0707.01055-.1054v-.0058c.0068-.0345.01682-.0683.02993-.101l.00306-.0078c.01337-.0324.02989-.0636.04932-.0929l.00374-.0064c.02153-.0319.04613-.0617.07347-.0889l1.61253-1.59672c.05401-.05343.11813-.09581.18869-.1247.07055-.02889.14617-.04374.22252-.04369h.01156.01123c.07641-.00009.15209.01473.22271.04363.07061.02889.13479.07129.18884.12476l1.61219 1.59742c.02733.0272.05194.057.07347.0889l.00374.0064c.01935.0295.03597.0607.04966.0933l.00272.0074c.01308.0327.0231.0665.02993.101v.0061c.00685.0347.0105.07.01089.1054-.00041.0354-.00405.0707-.01089.1054v.0061c-.00683.0345-.01685.0683-.02993.101l-.00272.0074c-.01376.0325-.03038.0637-.04966.0933l-.00374.0064c-.04307.0637-.09844.1185-.16292.161l-.00612.0037c-.02989.0193-.06155.0357-.09456.0491l-.00714.0027c-.03298.0131-.06715.0231-.10204.0297h-.00578c-.03532.0067-.07118.0102-.10714.0104h-.77548v.5372c.00225.1114-.01796.2221-.05944.3256-.04149.1036-.10343.1979-.18218.2775-.07876.0795-.17275.1428-.27648.1859-.10373.0432-.21511.0654-.32763.0654-.11251 0-.22389-.0222-.32762-.0654-.10373-.0431-.19772-.1064-.27648-.1859-.07875-.0796-.14069-.1739-.18218-.2775-.04148-.1035-.06169-.2142-.05944-.3256v-.5389zm5.41751 12.1108c-.11093.0149-.22274.0225-.33468.0229-.02449 0-.0483 0-.07279-.0023-.03163 0-.06326.0023-.09489.0023-1.34724 0-2.23871-.2765-2.76284-1.0481-.01168-.0174-.02891-.0304-.04894-.037-.02004-.0066-.04172-.0064-.0616.0007-.2568.0896-.53157.1168-.80122.0794s-.52628-.1383-.74833-.2944c-.22204-.156-.403-.3626-.52766-.6022-.12466-.2397-.18938-.5056-.18871-.7752.00015-.1131.01211-.226.03572-.3368.00342-.0172.00201-.035-.00408-.0515-.00621-.0166-.01706-.0311-.0313-.0417-.2309-.1631-.42018-.3773-.55274-.6255-.13257-.2483-.20476-.5238-.21084-.8045.01631-.3737.14252-.7346.36314-1.0382.22061-.3037.52601-.5369.87866-.671.01316-.0057.02481-.0144.03401-.0253.00921-.0108.01563-.0236.01871-.0374.25203-1.0625 1.26799-2.0826 2.7676-2.6414 1.71837-.6908 3.64076-.6925 5.36036-.0047.2605.1028.5147.2206.7612.353-1.9904.4492-4.63862 1.5155-6.41849 4.0478-.04.0563-.06822.12-.08299.1872-.02264.1013-.01439.2069.0237.3035s.1043.1798.19024.2391c.05707.0393.12141.0671.18935.0818.06793.0147.13812.016.20655.0037.06831-.0122.13351-.0377.19187-.0749s.10874-.0854.14826-.1419c1.46458-2.0831 3.65161-3.0594 5.40801-3.5178-.1701.1273-.3357.257-.498.3917l-.0119.0098-.0112.0101c-1.88259 1.6745-2.92507 4.0414-3.11418 7.0388zm12.12208 1.2461c.0001.4661-.1868.9132-.5196 1.2429-.3327.3297-.7841.515-1.2549.5151.001.2687-.0604.5339-.1796.7753-.1191.2413-.2927.4523-.5073.6166-.2147.1642-.4646.2774-.7305.3308-.2659.0533-.5406.0454-.8029-.0232-.1396.3098-.3669.573-.6543.7577-.2874.1848-.6227.2831-.9654.2833h-.002c-.3429-.0004-.6784-.0992-.9657-.2845-.2874-.1853-.5143-.4492-.6533-.7596-.264.0714-.541.0815-.8096.0296s-.5215-.1644-.739-.3288-.3938-.3763-.5152-.6191-.1846-.5101-.1848-.7811h-.0044c-.4712-.0002-.9231-.1853-1.2567-.5149-.33354-.3295-.52157-.7765-.52283-1.2431 0-.0317.00341-.062.00477-.0933-.00272-.0478-.00477-.0953-.00477-.1435 0-3.22.96013-5.7068 2.85363-7.3928.3971-.3289.814-.6337 1.2483-.9127l.4853.481c.1361.1354.2979.2428.4762.3159.0129.005.0262.0087.0391.0138v3.0237c-1.4839.4712-2.7744 1.4044-3.6794 2.6606-.079.1109-.1127.2474-.0942.3819s.0877.2571.1938.3432c.0927.0721.2073.1111.3252.1108.0274 0 .0548-.0021.0819-.0064.0716-.0112.14-.0368.2011-.0752.0612-.0384.1137-.0888.1544-.1481.7054-.9786 1.6851-1.7308 2.8179-2.1635v3.5652c-.0095.0855.006.1719.0446.2489.0386.0771.0986.1416.1731.1859.0936.0569.201.0876.3109.0889.1402-.0001.2746-.0553.3737-.1535s.1548-.2314.1548-.3702v-3.5524c1.1184.4348 2.0852 1.1817 2.7833 2.15.0405.0594.093.1099.1542.1483s.1296.0639.2012.075c.0271.0043.0545.0064.082.0064.0447-.0001.0893-.0057.1326-.0168.0702-.0179.1359-.05.1929-.0943.1056-.0864.1745-.209.1928-.3434s-.0152-.2707-.0939-.3817c-.8985-1.2455-2.1757-2.1738-3.6451-2.6492v-3.0311c.017-.0064.034-.0114.051-.0185.1791-.073.3416-.1808.4779-.3169l.4803-.4756c.4339.2777.8503.5814 1.2469.9094 1.8975 1.6839 2.8594 4.1727 2.8594 7.3928 0 .071-.0037.1411-.0099.2108.0011.0094.0021.0178.0021.0266zm7.0559-4.9568c-.133.2484-.3227.4625-.5541.6254-.0142.0106-.0251.0249-.0313.0414-.0064.0166-.0078.0346-.0041.0519.0235.1108.0354.2236.0358.3368.0006.2696-.0642.5353-.1889.775-.1247.2396-.3056.4461-.5277.6021-.222.156-.4786.257-.7482.2944-.2696.0373-.5444.0101-.8012-.0795-.0199-.0068-.0416-.0069-.0616-.0003s-.0373.0194-.0492.0366c-.5238.772-1.4153 1.0485-2.7625 1.0485-.0317 0-.0633 0-.0949-.0024-.0245 0-.0487.0024-.0728.0024-.1117-.0004-.2233-.0081-.334-.0229-.1891-2.9974-1.2343-5.364-3.1203-7.0389l-.0116-.0101-.0119-.0097c-.1639-.1347-.3326-.2664-.5034-.3947 1.7574.4573 3.9509 1.4336 5.4189 3.5214.0395.0565.0899.1047.1483.142.0583.0372.1235.0626.1918.0749.1379.0241.2798-.007.3945-.0863.1148-.0794.1931-.2006.2177-.3371.0123-.0678.0109-.1373-.0041-.2046-.0149-.0672-.0431-.1309-.0829-.1874-1.7799-2.5313-4.4278-3.5985-6.4179-4.0478.2461-.1324.5-.2501.7602-.3526 1.7198-.6877 3.6422-.686 5.3607.0047 1.4997.5584 2.517 1.5788 2.7673 2.6411.0034.0138.0099.0267.019.0377.0093.0109.0209.0195.0341.0252.3527.1339.6583.3671.8789.6708s.3466.6647.3625 1.0384c-.0051.2802-.076.5553-.2071.8036z" fill="#f64e63"/></svg>